<svg xmlns="http://www.w3.org/2000/svg" version="1.1" xmlns:xlink="http://www.w3.org/1999/xlink" width="512" height="512" x="0" y="0" viewBox="0 0 4000 4000" style="enable-background:new 0 0 512 512" xml:space="preserve" class=""><g transform="matrix(0.12000000000000009,0,0,0.12000000000000009,1760.0000000000007,1760.0000000000007)"><linearGradient id="a"><stop stop-opacity="1" stop-color="#ffffff" offset="0.9864864864864865"></stop><stop stop-opacity="1" stop-color="#e8e8e8" offset="1"></stop><stop stop-opacity="1" stop-color="#ffffff" offset="1"></stop></linearGradient><linearGradient xlink:href="#a" id="b" x1="1360.795" x2="2639.205" y1="688.795" y2="1967.205" gradientUnits="userSpaceOnUse"></linearGradient><linearGradient xlink:href="#a" id="c" x1="1360.795" x2="2639.205" y1="1360.795" y2="2639.205" gradientUnits="userSpaceOnUse"></linearGradient><linearGradient xlink:href="#a" id="d" x1="1360.795" x2="2639.205" y1="2032.795" y2="3311.205" gradientUnits="userSpaceOnUse"></linearGradient><path fill="url(#b)" d="M3120 1440H880c-61.852 0-112-50.094-112-112s50.148-112 112-112h2240c61.852 0 112 50.094 112 112s-50.148 112-112 112z" opacity="1" data-original="url(#b)" class=""></path><path fill="url(#c)" d="M3120 2112H880c-61.852 0-112-50.094-112-112s50.148-112 112-112h2240c61.852 0 112 50.094 112 112s-50.148 112-112 112z" opacity="1" data-original="url(#c)" class=""></path><path fill="url(#d)" d="M3120 2784H880c-61.852 0-112-50.094-112-112s50.148-112 112-112h2240c61.852 0 112 50.094 112 112s-50.148 112-112 112z" opacity="1" data-original="url(#d)" class=""></path></g></svg>