<svg id="Layer_1" enable-background="new 0 0 512 512" height="512" viewBox="0 0 512 512" width="512" xmlns="http://www.w3.org/2000/svg" xmlns:xlink="http://www.w3.org/1999/xlink"><linearGradient id="lg1"><stop offset="0" stop-color="#549eff"/><stop offset="1" stop-color="#006db0"/></linearGradient><linearGradient id="SVGID_1_" gradientTransform="matrix(1 0 0 -1 0 514.37)" gradientUnits="userSpaceOnUse" x1="35.97" x2="476.03" xlink:href="#lg1" y1="478.395" y2="38.345"/><linearGradient id="SVGID_00000057861624034913940180000011442126741855145401_" gradientTransform="matrix(1 0 0 -1 0 514.37)" gradientUnits="userSpaceOnUse" x1="114.33" x2="554.39" xlink:href="#lg1" y1="556.757" y2="116.707"/><linearGradient id="SVGID_00000121978486640819430200000017033385171242344838_" gradientTransform="matrix(1 0 0 -1 0 514.37)" gradientUnits="userSpaceOnUse" x1="-42.388" x2="397.673" xlink:href="#lg1" y1="400.036" y2="-40.014"/><g id="Layer_2_00000152251907835472970200000005028138900363896501_"><g id="InterfaceIcon"><g id="_06.Menu"><path d="m445.9 189.9h-379.8c-36.5.4-65.7 30.4-65.3 66.9.4 35.9 29.4 64.8 65.3 65.3h379.8c36.5-.4 65.7-30.4 65.3-66.9-.4-35.9-29.4-64.9-65.3-65.3zm46.1 66.1c0 25.5-20.6 46.1-46.1 46.1h-379.8c-25.5 0-46.1-20.6-46.1-46.1 0-25.5 20.6-46.1 46.1-46.1h379.8c25.5 0 46.1 20.6 46.1 46.1z" fill="url(#SVGID_1_)"/><path d="m445.9 33.2h-379.8c-36.5.4-65.7 30.4-65.3 66.9.4 35.9 29.4 64.8 65.3 65.3h379.8c36.5-.4 65.7-30.4 65.3-66.9-.4-35.9-29.4-64.9-65.3-65.3zm46.1 66.1c0 25.5-20.6 46.1-46.1 46.1h-379.8c-25.5 0-46.1-20.6-46.1-46.1 0-25.5 20.6-46.1 46.1-46.1h379.8c25.5 0 46.1 20.6 46.1 46.1z" fill="url(#SVGID_00000057861624034913940180000011442126741855145401_)"/><path d="m445.9 346.6h-379.8c-36.5 0-66.1 29.6-66.1 66.1s29.6 66.1 66.1 66.1h379.8c36.5 0 66.1-29.6 66.1-66.1s-29.6-66.1-66.1-66.1zm46.1 66.1c0 25.5-20.6 46.1-46.1 46.1h-379.8c-25.5 0-46.1-20.6-46.1-46.1 0-25.5 20.6-46.1 46.1-46.1h379.8c25.5 0 46.1 20.7 46.1 46.1z" fill="url(#SVGID_00000121978486640819430200000017033385171242344838_)"/></g></g></g></svg>